<svg xmlns="http://www.w3.org/2000/svg" version="1.1" xmlns:xlink="http://www.w3.org/1999/xlink" width="100%" height="100%" id="svgWorkerArea" viewBox="-25 -25 625 625" xmlns:idraw="https://idraw.muisca.co" style="background: white;"><defs id="defsdoc"><pattern id="patternBool" x="0" y="0" width="10" height="10" patternUnits="userSpaceOnUse" patternTransform="rotate(35)"><circle cx="5" cy="5" r="4" style="stroke: none;fill: #ff000070;"></circle></pattern></defs><g id="fileImp-110731744" class="cosito"><path id="pathImp-797182424" class="grouped" d="M190.1042 327.474C190.1042 327.474 192.7083 288.2487 192.7083 288.2487 192.7083 288.2487 190.1042 203.125 190.1042 203.125 189.9957 202.04 189.5888 201.1177 188.8835 200.3581 188.1782 199.5986 187.283 199.2188 186.1979 199.2188 185.2214 199.2188 184.3533 199.5986 183.5938 200.3581 182.8342 201.1177 182.4544 202.04 182.4544 203.125 182.4544 203.125 180.1758 288.2487 180.1758 288.2487 180.1758 288.2487 182.4544 327.474 182.4544 327.474 182.5629 328.5591 182.9698 329.4543 183.6751 330.1595 184.3804 330.8648 185.2214 331.2175 186.1979 331.2174 188.5851 331.2175 189.8872 329.9696 190.1042 327.474 190.1042 327.474 190.1042 327.474 190.1042 327.474M238.2813 322.7539C238.2813 322.7539 240.0716 288.4115 240.0716 288.4115 240.0716 288.4115 238.1185 193.0339 238.1185 193.0339 238.1185 191.2978 237.4132 189.9957 236.0026 189.1276 235.1346 188.5851 234.2665 188.3138 233.3984 188.3138 232.5304 188.3138 231.6623 188.5851 230.7943 189.1276 229.3837 189.9957 228.6784 191.2978 228.6784 193.0339 228.6784 193.0339 228.5156 194.0105 228.5156 194.0104 228.5156 194.0105 226.888 288.2487 226.888 288.2487 226.888 288.3573 227.4848 301.1611 228.6784 326.6602 228.6784 326.6602 228.6784 326.823 228.6784 326.8229 228.6784 327.908 229.0039 328.8303 229.655 329.5899 230.6315 330.7835 231.8793 331.3803 233.3984 331.3802 234.592 331.3803 235.6771 330.892 236.6537 329.9154 237.6302 329.1558 238.1185 328.0708 238.1185 326.6602 238.1185 326.6602 238.2813 322.7539 238.2813 322.7539M68.1966 267.4154C68.1966 267.4154 71.4518 288.2487 71.4518 288.2487 71.4518 288.2487 68.1966 308.7565 68.1966 308.7565 67.9796 309.7331 67.4913 310.2214 66.7318 310.2214 65.9722 310.2214 65.4839 309.7331 65.2669 308.7565 65.2669 308.7565 62.5 288.2487 62.5 288.2487 62.5 288.2487 65.2669 267.4154 65.2669 267.4154 65.4839 266.4389 65.9722 265.9506 66.7318 265.9505 67.4913 265.9506 67.9796 266.4389 68.1966 267.4154 68.1966 267.4154 68.1966 267.4154 68.1966 267.4154M82.194 254.5573C82.194 254.5573 86.4258 288.2487 86.4258 288.2487 86.4258 288.2487 82.194 321.2891 82.194 321.2891 81.977 322.2657 81.4345 322.7539 80.5664 322.7539 79.5898 322.7539 79.1016 322.2114 79.1016 321.1263 79.1016 321.1264 75.3581 288.2487 75.3581 288.2487 75.3581 288.2487 79.1016 254.5573 79.1016 254.5573 79.1016 253.5808 79.5898 253.0925 80.5664 253.0924 81.4345 253.0925 81.977 253.5808 82.194 254.5573 82.194 254.5573 82.194 254.5573 82.194 254.5573M127.7669 328.2878C127.7669 328.2878 127.7669 328.2878 127.7669 328.2878M97.168 248.3724C97.168 248.3724 101.237 288.2487 101.237 288.2487 101.237 288.2487 97.168 326.823 97.168 326.8229 97.168 328.0165 96.5712 328.6133 95.3776 328.6133 94.2925 328.6133 93.6415 328.0165 93.4245 326.8229 93.4245 326.823 90.0065 288.2487 90.0065 288.2487 90.0065 288.2487 93.4245 248.3724 93.4245 248.3724 93.6415 247.0704 94.2925 246.4193 95.3776 246.4193 96.5712 246.4193 97.168 247.0704 97.168 248.3724 97.168 248.3724 97.168 248.3724 97.168 248.3724M112.4675 247.2331C112.4675 247.2331 116.2109 288.2487 116.2109 288.2487 116.2109 288.2487 112.4675 327.9623 112.4675 327.9623 112.2504 329.3729 111.4909 330.0782 110.1888 330.0781 108.7782 330.0782 108.0729 329.3729 108.0729 327.9623 108.0729 327.9623 104.655 288.2487 104.655 288.2487 104.655 288.2487 108.0729 247.2331 108.0729 247.2331 108.0729 245.8225 108.7782 245.1172 110.1888 245.1172 111.4909 245.1172 112.2504 245.8225 112.4675 247.2331 112.4675 247.2331 112.4675 247.2331 112.4675 247.2331M127.7669 250.1628C127.7669 250.1628 131.1849 288.2487 131.1849 288.2487 131.1849 288.2487 127.7669 328.2878 127.7669 328.2878 127.5499 330.0239 126.6819 330.892 125.1628 330.8919 124.5117 330.892 123.9421 330.6478 123.4538 330.1595 122.9655 329.6713 122.7214 329.0474 122.7214 328.2878 122.7214 328.2878 119.4661 288.2487 119.4661 288.2487 119.4661 288.2487 122.7214 250.1628 122.7214 250.1628 122.7214 249.5118 122.9655 248.9421 123.4538 248.4538 123.9421 247.9655 124.5117 247.7214 125.1628 247.7214 126.6819 247.7214 127.5499 248.5352 127.7669 250.1628 127.7669 250.1628 127.7669 250.1628 127.7669 250.1628M190.1042 327.474C190.1042 327.474 190.1042 327.474 190.1042 327.474M143.0664 226.3997C143.0664 226.3998 146.4844 288.2487 146.4844 288.2487 146.4844 288.2487 143.0664 328.2878 143.0664 328.2878 143.0664 329.0474 142.7951 329.7255 142.2526 330.3223 141.7101 330.9191 141.059 331.2175 140.2995 331.2174 138.5634 331.2175 137.5868 330.2409 137.3698 328.2878 137.3698 328.2878 134.4401 288.2487 134.4401 288.2487 134.4401 288.2487 137.3698 226.3998 137.3698 226.3997 137.5868 224.4467 138.5634 223.4701 140.2995 223.4701 141.059 223.4701 141.7101 223.7685 142.2526 224.3652 142.7951 224.9621 143.0664 225.6402 143.0664 226.3997 143.0664 226.3998 143.0664 226.3998 143.0664 226.3997M158.3659 212.4024C158.3659 212.4024 161.4583 288.5743 161.4583 288.5742 161.4583 288.5743 158.3659 328.2878 158.3659 328.2878 158.3659 329.1558 158.0675 329.8883 157.4707 330.485 156.8739 331.0819 156.1415 331.3803 155.2734 331.3802 153.3203 331.3803 152.2352 330.3494 152.0182 328.2878 152.0182 328.2878 149.4141 288.5743 149.4141 288.5742 149.4141 288.5743 152.0182 212.4024 152.0182 212.4024 152.2352 210.3408 153.3203 209.3099 155.2734 209.3099 156.1415 209.3099 156.8739 209.6083 157.4707 210.2051 158.0675 210.8019 158.3659 211.5343 158.3659 212.4024 158.3659 212.4024 158.3659 212.4024 158.3659 212.4024M174.3164 205.8919C174.3164 205.892 177.2461 288.2487 177.2461 288.2487 177.2461 288.2487 174.3164 327.6368 174.3164 327.6367 174.0994 329.9154 172.9058 331.0547 170.7357 331.0547 168.674 331.0547 167.5347 329.9154 167.3177 327.6367 167.3177 327.6368 164.7135 288.2487 164.7135 288.2487 164.7135 288.2487 167.3177 205.892 167.3177 205.8919 167.3177 204.9154 167.6704 204.0745 168.3757 203.3692 169.0809 202.6639 169.8676 202.3112 170.7357 202.3112 171.7122 202.3112 172.526 202.6639 173.1771 203.3692 173.8281 204.0745 174.2079 204.9154 174.3164 205.8919 174.3164 205.892 174.3164 205.892 174.3164 205.8919M238.1185 326.6602C238.1185 326.6602 238.1185 326.6602 238.1185 326.6602M205.8919 205.2409C205.8919 205.2409 208.3333 288.2487 208.3333 288.2487 208.3333 288.2487 205.8919 327.1485 205.8919 327.1484 205.8919 328.2336 205.485 329.183 204.6712 329.9967 203.8574 330.8106 202.908 331.2175 201.8229 331.2174 200.7379 331.2175 199.8155 330.8377 199.056 330.0781 198.2964 329.3186 197.8624 328.3421 197.7539 327.1484 197.7539 327.1485 195.4753 288.2487 195.4753 288.2487 195.4753 288.2487 197.7539 205.2409 197.7539 205.2409 197.7539 204.0473 198.1608 203.0708 198.9746 202.3112 199.7884 201.5517 200.7379 201.1719 201.8229 201.1719 202.908 201.1719 203.8574 201.5517 204.6712 202.3112 205.485 203.0708 205.8919 204.0473 205.8919 205.2409 205.8919 205.2409 205.8919 205.2409 205.8919 205.2409M222.0052 208.3333C222.0052 208.3334 224.2839 288.4115 224.2839 288.4115 224.2839 288.4115 222.0052 326.823 222.0052 326.8229 222.0052 328.0165 221.5712 329.0474 220.7031 329.9154 219.8351 330.7835 218.8043 331.2175 217.6107 331.2174 216.4171 331.2175 215.3863 330.7835 214.5182 329.9154 213.6502 329.0474 213.1619 328.0165 213.0534 326.8229 213.0534 326.823 211.1003 288.4115 211.1003 288.4115 211.1003 288.4115 213.0534 208.3334 213.0534 208.3333 213.1619 207.0313 213.6502 205.9462 214.5182 205.0781 215.3863 204.2101 216.4171 203.7761 217.6107 203.776 218.8043 203.7761 219.808 204.2101 220.6217 205.0781 221.4355 205.9462 221.8967 207.0313 222.0052 208.3333 222.0052 208.3334 222.0052 208.3334 222.0052 208.3333M256.5104 288.4115C256.5104 288.4115 254.2318 326.0092 254.2318 326.0091 254.2318 327.4198 253.7435 328.6133 252.7669 329.5899 251.7904 330.5664 250.5968 331.0547 249.1862 331.0547 247.7756 331.0547 246.582 330.5664 245.6055 329.5899 244.6289 328.6133 244.0864 327.4198 243.9779 326.0091 243.9779 326.0092 243.0013 307.4545 243.0013 307.4544 243.0013 307.4545 242.0247 288.4115 242.0247 288.4115 242.0247 288.4115 243.9779 184.8959 243.9779 184.8958 243.9779 184.8959 243.9779 184.4076 243.9779 184.4076 244.1949 182.78 244.8459 181.4779 245.931 180.5013 246.9076 179.7418 247.9926 179.362 249.1862 179.362 250.0543 179.362 250.8681 179.6333 251.6276 180.1758 253.1467 181.0439 254.0148 182.4545 254.2318 184.4076 254.2318 184.4076 256.5104 288.4115 256.5104 288.4115M437.5 285.319C437.5 298.0144 432.9969 308.8379 423.9909 317.7897 414.9848 326.7416 404.1341 331.2175 391.4388 331.2174 391.4388 331.2175 263.5091 331.2175 263.5091 331.2174 262.0985 331.0005 260.905 330.4037 259.9284 329.4271 258.9518 328.4506 258.4635 327.257 258.4635 325.8464 258.4635 325.8464 258.4635 179.5248 258.4635 179.5247 258.4635 177.0291 259.9827 175.2388 263.0208 174.1537 272.2439 170.4645 282.0638 168.6198 292.4805 168.6198 313.6393 168.6198 331.977 175.7542 347.4935 190.0228 363.01 204.2915 371.6906 221.8425 373.5352 242.6758 379.286 240.2887 385.2539 239.0951 391.4388 239.0951 404.1341 239.0951 414.9848 243.5981 423.9909 252.6042 432.9969 261.6103 437.5 272.5152 437.5 285.319 437.5 285.319 437.5 285.319 437.5 285.319"></path></g></svg>